Coordinates
version=1
nRows=12
nColumns=24
inDegrees=yes

Units are S.I. units (second, meters, Newtons, ...)
Angles are in degrees.

endheader
time	pelvis_tilt	pelvis_list	pelvis_rotation	pelvis_tx	pelvis_ty	pelvis_tz	hip_flexion_r	hip_adduction_r	hip_rotation_r	knee_angle_r	ankle_angle_r	subtalar_angle_r	mtp_angle_r	hip_flexion_l	hip_adduction_l	hip_rotation_l	knee_angle_l	ankle_angle_l	subtalar_angle_l	mtp_angle_l	lumbar_extension	lumbar_bending	lumbar_rotation
      3.09500000	     -4.01391616	      8.33848400	      1.07052848	     -0.71249081	     -0.01867864	     -0.16101699	     30.38246576	     -8.20209720	     -0.06675829	    -67.33908858	    -12.15542347	      1.70968889	     23.06663639	     10.85480192	     16.54095799	     -0.61315610	    -19.17863912	     27.82061085	     19.05082476	    -67.08821990	      5.65573853	    -11.10804132	     -2.68408958
      3.10000000	     -3.91521268	      8.13817302	      1.21906507	     -0.70674285	     -0.01797758	     -0.16131390	     30.89062955	     -7.96951172	     -0.29027431	    -66.35653444	    -11.55435683	      1.78470253	     23.05003068	      9.99682741	     16.34986870	     -0.39566959	    -18.73703666	     28.02010055	     19.27914242	    -67.09318358	      5.47596211	    -10.93486285	     -2.92638099
      3.10500000	     -3.82485236	      7.93174758	      1.37455279	     -0.70100515	     -0.01733183	     -0.16160434	     31.37349207	     -7.73884894	     -0.53251502	    -65.29919809	    -10.97330939	      1.87280920	     22.97323183	      9.15901129	     16.13750506	     -0.23589707	    -18.30948593	     28.23587512	     19.57374782	    -67.10646886	      5.30533126	    -10.75699319	     -3.17319071
      3.11000000	     -3.74513639	      7.72703465	      1.53280546	     -0.69527245	     -0.01675274	     -0.16189361	     31.83880571	     -7.51906248	     -0.78628008	    -64.17677054	    -10.41290111	      1.96552484	     22.83911496	      8.34237532	     15.91443267	     -0.13345614	    -17.89142658	     28.46374838	     19.91699552	    -67.13064574	      5.14482037	    -10.58005906	     -3.42360359
      3.11500000	     -3.65832775	      7.52464800	      1.70113509	     -0.68955939	     -0.01621937	     -0.16217774	     32.26099218	     -7.30933240	     -1.05107711	    -62.98627408	     -9.85090878	      2.06755595	     22.63018478	      7.52848453	     15.68299425	     -0.06764346	    -17.48590301	     28.70640539	     20.31196283	    -67.17649622	      4.97186083	    -10.40696273	     -3.67768379
      3.12000000	     -3.62624697	      7.31308124	      1.85603404	     -0.68378398	     -0.01579805	     -0.16244927	     32.71643811	     -7.09314509	     -1.31770221	    -61.73163330	     -9.34641948	      2.17914912	     22.43867480	      6.77878033	     15.43920357	     -0.03160745	    -17.08775427	     28.96641154	     20.67199590	    -67.21236139	      4.88168044	    -10.22584871	     -3.90250821
      3.12500000	     -3.53288203	      7.11222610	      2.03274069	     -0.67809795	     -0.01536972	     -0.16270005	     33.06927252	     -6.90083974	     -1.60844909	    -60.41663178	     -8.79061381	      2.30507993	     22.15001455	      5.97823067	     15.19198446	     -0.02497403	    -16.70547256	     29.22738134	     21.11473470	    -67.29129625	      4.69245461	    -10.06294833	     -4.18795653
      3.13000000	     -3.49243756	      6.90823406	      2.19306780	     -0.67241512	     -0.01504962	     -0.16295122	     33.45995050	     -6.70324023	     -1.88680885	    -59.04389150	     -8.26663764	      2.44433873	     21.86378110	      5.24687359	     14.94391596	     -0.02858619	    -16.32978661	     29.48045175	     21.50099063	    -67.38265094	      4.56520127	     -9.88249276	     -4.43345636
      3.13500000	     -3.44769139	      6.70566974	      2.36663585	     -0.66673298	     -0.01476916	     -0.16316685	     33.80447292	     -6.51011542	     -2.16606400	    -57.60169790	     -7.73319205	      2.60837499	     21.56498535	      4.52563660	     14.69077348	     -0.02908110	    -15.98123253	     29.74540845	     21.89090837	    -67.49615154	      4.43636973	     -9.71743731	     -4.68518344
      3.14000000	     -3.41932537	      6.50333591	      2.53661612	     -0.66109412	     -0.01456333	     -0.16337026	     34.14207785	     -6.31822948	     -2.43880949	    -56.10318161	     -7.20174446	      2.79546144	     21.27836818	      3.83805969	     14.43728837	     -0.02801658	    -15.64771875	     30.01077116	     22.25269430	    -67.62692917	      4.31429173	     -9.55003765	     -4.92961051
      3.14500000	     -3.40641227	      6.30394764	      2.70311408	     -0.65548040	     -0.01442483	     -0.16354547	     34.46728967	     -6.12745645	     -2.69907229	    -54.54383145	     -6.67391859	      3.00753391	     21.01794207	      3.18197511	     14.18587868	     -0.02215500	    -15.33057799	     30.27898023	     22.58337320	    -67.76661649	      4.20820857	     -9.38726868	     -5.16538071
      3.15000000	     -3.48920433	      6.10833124	      2.83602320	     -0.64989362	     -0.01443474	     -0.16365703	     34.88230914	     -5.90826873	     -2.87646388	    -52.92399225	     -6.21901686	      3.21029339	     20.87537154	      2.64638292	     13.94353501	      0.03250725	    -15.02551630	     30.51673887	     22.82848140	    -67.83008467	      4.20903211	     -9.22548419	     -5.29896104
